<svg id="Layer_1" data-name="Layer 1" xmlns="http://www.w3.org/2000/svg" viewBox="0 0 564.68 193.05"><defs><style>.cls-1{fill:#231f20;}.cls-2{fill:#13e27a;}</style></defs><title>Artboard 1</title><path class="cls-1" d="M26,63.76H39.06V100.4h.32a17.82,17.82,0,0,1,2.5-2.66,20.15,20.15,0,0,1,3.7-2.56,22.37,22.37,0,0,1,5-2,25.52,25.52,0,0,1,6.52-.75,24.5,24.5,0,0,1,10.22,2.11,24,24,0,0,1,8,5.82,26.74,26.74,0,0,1,5.16,8.7,30.6,30.6,0,0,1,1.85,10.76,32.5,32.5,0,0,1-1.74,10.76,24.83,24.83,0,0,1-5.11,8.7,24.1,24.1,0,0,1-8.15,5.81,26.19,26.19,0,0,1-10.76,2.12,24.65,24.65,0,0,1-10.33-2.17,16.75,16.75,0,0,1-7.61-7H38.4V146H26Zm43.27,56.1a17,17,0,0,0-1-5.87,14.71,14.71,0,0,0-3-5,15.4,15.4,0,0,0-22.5,0,14.57,14.57,0,0,0-3.05,5,17.24,17.24,0,0,0,0,11.74,14.67,14.67,0,0,0,3.05,5,15.42,15.42,0,0,0,22.5,0,14.8,14.8,0,0,0,3-5A16.92,16.92,0,0,0,69.28,119.86Z"/><path class="cls-1" d="M100.39,124.43a13.29,13.29,0,0,0,4.57,9.13,14.3,14.3,0,0,0,9.45,3.26,15.56,15.56,0,0,0,8.21-2,22.82,22.82,0,0,0,5.82-5.06l9.35,7.07a26.47,26.47,0,0,1-10.22,8,30,30,0,0,1-11.85,2.39,31.44,31.44,0,0,1-11.09-1.95,26.63,26.63,0,0,1-9-5.55,26.31,26.31,0,0,1-6-8.64,29.62,29.62,0,0,1,0-22.5,25.93,25.93,0,0,1,15.06-14.19,31.44,31.44,0,0,1,11.09-2,25.53,25.53,0,0,1,10,1.89,21.49,21.49,0,0,1,7.72,5.5,25.53,25.53,0,0,1,5,8.85,37.81,37.81,0,0,1,1.79,12.13v3.59Zm26.74-9.79a12.31,12.31,0,0,0-3.58-9.08q-3.48-3.32-9.68-3.31-5.87,0-9.29,3.37a15,15,0,0,0-4.19,9Z"/><path class="cls-1" d="M155.35,104.86V93.77h10.76V78.66h13V93.77h14.35v11.09H179.16v22.83a11.32,11.32,0,0,0,1.47,6.19q1.45,2.28,5.81,2.28a20.63,20.63,0,0,0,3.81-.38,7.83,7.83,0,0,0,3.26-1.25v11a16.84,16.84,0,0,1-5.06,1.35,41.11,41.11,0,0,1-5.27.38,26.65,26.65,0,0,1-8.53-1.14,11.21,11.21,0,0,1-5.22-3.47,13.2,13.2,0,0,1-2.61-5.82,40.08,40.08,0,0,1-.71-8V104.86Z"/><path class="cls-1" d="M213.52,101.05h.22a15.18,15.18,0,0,1,5.38-5.92,17.12,17.12,0,0,1,9.95-2.66,20.47,20.47,0,0,1,8.86,1.73,16.85,16.85,0,0,1,5.92,4.57,17.26,17.26,0,0,1,3.26,6.52,30.19,30.19,0,0,1,1,7.72V146h-13V119.53c0-1.45-.08-3.06-.22-4.84a17.64,17.64,0,0,0-1.14-5,9.44,9.44,0,0,0-2.88-3.92,8.28,8.28,0,0,0-5.33-1.58,12.49,12.49,0,0,0-5.49,1.09,10.52,10.52,0,0,0-3.7,2.94,11.83,11.83,0,0,0-2.12,4.24,19.09,19.09,0,0,0-.65,5V146h-13V63.76h13Z"/><path class="cls-1" d="M267.78,124.43a13.24,13.24,0,0,0,4.56,9.13,14.33,14.33,0,0,0,9.46,3.26,15.59,15.59,0,0,0,8.21-2,22.82,22.82,0,0,0,5.82-5.06l9.34,7.07a26.39,26.39,0,0,1-10.22,8,29.93,29.93,0,0,1-11.84,2.39A31.4,31.4,0,0,1,272,145.3a26.63,26.63,0,0,1-9-5.55,26.31,26.31,0,0,1-6-8.64,29.49,29.49,0,0,1,0-22.5A25.93,25.93,0,0,1,272,94.42a31.4,31.4,0,0,1,11.09-2,25.48,25.48,0,0,1,9.94,1.89,21.4,21.4,0,0,1,7.72,5.5,25.22,25.22,0,0,1,5,8.85,37.52,37.52,0,0,1,1.8,12.13v3.59Zm26.74-9.79a12.28,12.28,0,0,0-3.59-9.08q-3.48-3.32-9.67-3.31c-3.92,0-7,1.12-9.3,3.37a15,15,0,0,0-4.18,9Z"/><path class="cls-2" d="M430.17,117.9,412.12,93.77H428l10.44,15.65,11.3-15.65h14.9L446.8,117.9l21,28H451.91l-13.59-18.7L424.62,146H409.18Z"/><path class="cls-2" d="M477.79,124.43a13.29,13.29,0,0,0,4.57,9.13,14.3,14.3,0,0,0,9.45,3.26,15.56,15.56,0,0,0,8.21-2,22.82,22.82,0,0,0,5.82-5.06l9.35,7.07a26.47,26.47,0,0,1-10.22,8,30,30,0,0,1-11.85,2.39A31.44,31.44,0,0,1,482,145.3a26.63,26.63,0,0,1-9-5.55,26.31,26.31,0,0,1-6-8.64,29.62,29.62,0,0,1,0-22.5A25.93,25.93,0,0,1,482,94.42a31.44,31.44,0,0,1,11.09-2,25.53,25.53,0,0,1,9.95,1.89,21.49,21.49,0,0,1,7.72,5.5,25.53,25.53,0,0,1,5,8.85,37.81,37.81,0,0,1,1.79,12.13v3.59Zm26.74-9.79a12.31,12.31,0,0,0-3.58-9.08q-3.48-3.32-9.68-3.31-5.86,0-9.29,3.37a15,15,0,0,0-4.19,9Z"/><path class="cls-2" d="M525.62,63.76h13V146h-13Z"/><path class="cls-2" d="M390.81,93.77h13.05V146H390.81Z"/><rect class="cls-2" x="389.93" y="22.31" width="14.81" height="14.81"/><path class="cls-2" d="M381,109.1a24.83,24.83,0,0,0-5.11-8.7,24.26,24.26,0,0,0-8.15-5.82A26.37,26.37,0,0,0,357,92.47a24.64,24.64,0,0,0-10.32,2.17.8.8,0,0,0-.16.08v11.56a14.45,14.45,0,0,1,1.46-.77,16.36,16.36,0,0,1,12.83,0,15.32,15.32,0,0,1,4.84,3.48,14.71,14.71,0,0,1,3,5,17.24,17.24,0,0,1,0,11.74,14.8,14.8,0,0,1-3,5,15.32,15.32,0,0,1-4.84,3.48,15.42,15.42,0,0,1-17.67-3.48,14.8,14.8,0,0,1-3-5,17.24,17.24,0,0,1,0-11.74,12.6,12.6,0,0,1,.63-1.46H326.46v58.2h13V139.32h.33a17.82,17.82,0,0,0,2.5,2.66,19,19,0,0,0,3.7,2.55,21.28,21.28,0,0,0,5,2,25,25,0,0,0,6.52.76,24.38,24.38,0,0,0,10.22-2.12,24,24,0,0,0,8-5.81,26.74,26.74,0,0,0,5.16-8.7,30.83,30.83,0,0,0,1.85-10.76A32.5,32.5,0,0,0,381,109.1Z"/></svg>